<svg width="30" height="30" viewBox="0 0 30 30" fill="none" xmlns="http://www.w3.org/2000/svg">
<path fill-rule="evenodd" clip-rule="evenodd" d="M4.28707 7H25.7886C26.47 7 27 7.59791 27 8.27055V22.4709C27 23.1435 26.47 23.6667 25.7886 23.6667H4.28707C3.60568 23.6667 3 23.1435 3 22.4709V8.27055C3 7.59791 3.60568 7 4.28707 7ZM3.54408 9.91462H26.379V13.3526H3.54408V9.91462ZM21.0944 18.6593C22.0786 18.6593 22.9114 19.4814 22.9114 20.453C22.9114 21.4246 22.0786 22.2468 21.0944 22.2468C20.1102 22.2468 19.2773 21.4246 19.2773 20.453C19.2773 19.4814 20.1102 18.6593 21.0944 18.6593ZM23.5927 18.6593C24.5769 18.6593 25.4097 19.4814 25.4097 20.453C25.4097 21.4246 24.5769 22.2468 23.5927 22.2468C23.2898 22.2468 22.987 22.172 22.6842 22.0225C23.1384 21.5741 23.3655 21.0509 23.3655 20.453C23.3655 19.8551 23.1384 19.2572 22.6842 18.8835C22.987 18.7341 23.2898 18.6593 23.5927 18.6593Z" fill="url(#paint0_linear)"/>
<defs>
<linearGradient id="paint0_linear" x1="15" y1="7" x2="15" y2="23.6667" gradientUnits="userSpaceOnUse">
<stop stop-color="#FFB7B6"/>
<stop offset="1" stop-color="#F04E48"/>
</linearGradient>
</defs>
</svg>
