<svg width="30" height="30" viewBox="0 0 30 30" fill="none" xmlns="http://www.w3.org/2000/svg">
<path fill-rule="evenodd" clip-rule="evenodd" d="M2.54921 19.9991C1.2582 19.5012 1 18.8569 1 18.3883V16.3382V16.3089V14.2882V14.2589V14.2296V12.2381V12.2088V12.1795V10.1587V10.1294V8.10865C1 7.64006 1.2582 6.99575 2.54921 6.49788C3.40988 6.17572 4.50007 6 5.67632 6C6.85257 6 7.97145 6.17572 8.80343 6.49788C10.0944 6.99575 10.3526 7.64006 10.3526 8.10865V8.13793V10.1294V10.1587V10.188V12.1795V12.2088V12.2381V13.0874C9.75017 13.2045 9.1477 13.351 8.65999 13.5267C8.14358 13.7024 7.77063 13.9367 7.45505 14.171C6.90995 14.2589 6.30748 14.3174 5.67632 14.3174C4.50007 14.3174 3.38119 14.1417 2.54921 13.8196C2.48928 13.7934 2.43191 13.7697 2.37709 13.7472L2.37708 13.7472L2.37707 13.7472L2.37707 13.7472C2.2482 13.6941 2.13344 13.6469 2.03281 13.5853V14.2296C2.03281 14.2882 2.20494 14.581 2.92217 14.8446C3.6394 15.1375 4.61483 15.2839 5.67632 15.2839C5.9919 15.2839 6.30748 15.2839 6.59437 15.2546C6.45093 15.6061 6.42224 15.8989 6.42224 16.1332V16.3968C6.16404 16.4261 5.93452 16.4261 5.67632 16.4261C4.50007 16.4261 3.38119 16.2504 2.54921 15.9282C2.4893 15.902 2.43194 15.8784 2.37714 15.8559L2.37708 15.8558C2.2482 15.8028 2.13344 15.7556 2.03281 15.6939V16.3382C2.03281 16.3968 2.20494 16.6897 2.92217 16.9533C3.6394 17.2461 4.61483 17.3926 5.67632 17.3926H5.67635C5.93454 17.3926 6.19273 17.3926 6.42224 17.3633V18.1833V18.4469C6.16404 18.4762 5.93452 18.4762 5.67632 18.4762C4.50007 18.4762 3.38119 18.3004 2.54921 17.9783C2.48927 17.9521 2.43189 17.9285 2.37707 17.9059C2.24819 17.8529 2.13344 17.8056 2.03281 17.744V18.3883C2.03281 18.4469 2.20494 18.7397 2.92217 19.0033C3.6394 19.2962 4.61483 19.4426 5.67632 19.4426C5.93452 19.4426 6.19273 19.4426 6.42224 19.4133V20.2334V20.2627V20.4677C6.16404 20.497 5.93452 20.497 5.67632 20.497C4.50007 20.497 3.38119 20.3212 2.54921 19.9991ZM29.0005 7.81573V15.811C29.0005 16.6603 28.3119 17.3632 27.48 17.3632H17.8117V16.1917V16.1332V16.016H25.9021C25.8734 15.9282 25.8734 15.811 25.8734 15.7232V15.7232C25.8734 14.8446 26.5619 14.1417 27.4226 14.1417C27.5087 14.1417 27.5947 14.1417 27.6808 14.171V9.4265C27.657 9.4265 27.6283 9.43153 27.5947 9.43741C27.5472 9.44574 27.4898 9.45579 27.4226 9.45579C26.5619 9.45579 25.8734 8.75291 25.8734 7.8743V7.87429C25.8734 7.78643 25.8734 7.66929 25.9021 7.58144H14.5986C14.6273 7.69858 14.6559 7.84502 14.6559 7.96216C14.6559 8.84077 13.9674 9.54365 13.1067 9.54365C12.9633 9.54365 12.8485 9.51436 12.7338 9.48508V12.9702C12.6367 12.9702 12.5397 12.9634 12.4394 12.9563L12.4393 12.9563C12.3321 12.9487 12.2212 12.9409 12.1026 12.9409H12.1026C11.8731 12.9409 11.6436 12.9409 11.4141 12.9702V7.81573C11.4141 6.96641 12.1026 6.26353 12.9346 6.26353H27.4513C28.3119 6.26353 29.0005 6.96641 29.0005 7.81573ZM23.4622 11.7988C23.4622 9.92442 21.9704 8.40151 20.1343 8.40151C18.2982 8.40151 16.7777 9.92442 16.7777 11.7988C16.7777 13.6731 18.2695 15.196 20.1056 15.196C21.9417 15.196 23.4622 13.7024 23.4622 11.7988ZM15.2593 12.9119C14.7429 12.9119 14.3413 12.5018 14.3413 11.9747C14.3413 11.4475 14.7429 11.0375 15.2593 11.0375C15.7757 11.0375 16.1774 11.4475 16.1774 11.9747C16.1774 12.5018 15.7757 12.9119 15.2593 12.9119ZM24.0376 11.9747C24.0376 12.5018 24.4392 12.9119 24.9556 12.9119C25.472 12.9119 25.9024 12.5018 25.8737 11.9747C25.8737 11.4475 25.472 11.0375 24.9556 11.0375C24.4392 11.0375 24.0376 11.4475 24.0376 11.9747ZM2.8929 7.49377C3.61012 7.23018 4.61424 7.05446 5.64705 7.05446C6.70855 7.05446 7.68397 7.2009 8.4012 7.49377C9.08974 7.75735 9.26188 8.02093 9.29056 8.10879V8.13808C9.29056 8.22594 9.11843 8.48952 8.4012 8.7531C7.68397 9.01668 6.67986 9.1924 5.64705 9.1924C4.58555 9.1924 3.61012 9.04597 2.8929 8.7531C2.17567 8.48952 2.00354 8.19665 2.00354 8.13808C2.03222 8.05021 2.17567 7.78663 2.8929 7.49377ZM2.37652 9.67632C2.24764 9.62329 2.13288 9.57606 2.03225 9.51442V10.1587C2.03225 10.2173 2.20438 10.5102 2.92161 10.7738C3.63884 11.0666 4.61426 11.2131 5.67576 11.2131C6.70857 11.2131 7.71269 11.0373 8.42991 10.7738C9.14714 10.5102 9.31928 10.2466 9.31928 10.1587V9.51442C9.21865 9.57606 9.1039 9.62328 8.97503 9.67631L8.97503 9.67632L8.97502 9.67632L8.97501 9.67632L8.97499 9.67633L8.97499 9.67633L8.97496 9.67635L8.97492 9.67636L8.9749 9.67637L8.9749 9.67637C8.9201 9.69892 8.86276 9.72252 8.80287 9.74872C7.9422 10.0709 6.85201 10.2466 5.67576 10.2466C4.49951 10.2466 3.38063 10.0709 2.54865 9.74872C2.48875 9.72251 2.4314 9.69891 2.3766 9.67636L2.37652 9.67633L2.37652 9.67632ZM2.03225 11.5646C2.13288 11.6262 2.24764 11.6734 2.37651 11.7265L2.37652 11.7265C2.43134 11.749 2.48872 11.7726 2.54865 11.7989C3.38063 12.121 4.49951 12.2967 5.67576 12.2967C6.85201 12.2967 7.9422 12.121 8.80287 11.7989C8.86281 11.7726 8.92019 11.749 8.97501 11.7265L8.97502 11.7265C9.10389 11.6734 9.21864 11.6262 9.31928 11.5646V12.2089C9.31928 12.2967 9.14714 12.5603 8.42991 12.8239C7.71269 13.0875 6.70857 13.2632 5.67576 13.2632C4.61426 13.2632 3.63884 13.1168 2.92161 12.8239C2.20438 12.5603 2.03225 12.2674 2.03225 12.2089V11.5646ZM7.42591 22.2541V20.2626V20.204V18.1832V18.154V16.1332C7.42591 15.6646 7.68411 15.0203 8.97512 14.5224C9.83579 14.2002 10.926 14.0245 12.1022 14.0245C13.2785 14.0245 14.3974 14.2002 15.2293 14.5224C16.5204 15.0203 16.7786 15.6646 16.7786 16.1332V16.1625V18.154V18.1832V18.2125V20.204V20.2333V20.2626V22.2541V22.2834C16.7786 22.752 16.5204 23.3963 15.2293 23.8942C14.3687 24.2163 13.2785 24.392 12.1022 24.392C10.926 24.392 9.8071 24.2163 8.97512 23.8942C7.68411 23.3963 7.42591 22.752 7.42591 22.2834V22.2541ZM9.34888 15.5183C10.0661 15.2547 11.0702 15.079 12.103 15.079C13.1645 15.079 14.14 15.2254 14.8572 15.5183C15.5457 15.7819 15.7179 16.0455 15.7466 16.1333V16.1626C15.7466 16.2505 15.5744 16.514 14.8572 16.7776C14.14 17.0412 13.1358 17.2169 12.103 17.2169C11.0415 17.2169 10.0661 17.0705 9.34888 16.7776C8.63166 16.514 8.45952 16.2212 8.45952 16.1626C8.45952 16.0747 8.63166 15.7819 9.34888 15.5183ZM8.80379 17.6715C8.67492 17.6184 8.56016 17.5712 8.45952 17.5096V18.1539C8.45952 18.2124 8.63166 18.5053 9.34888 18.7689C10.0661 19.0618 11.0415 19.2082 12.103 19.2082C13.1358 19.2082 14.14 19.0325 14.8572 18.7689C15.5744 18.5053 15.7466 18.2417 15.7466 18.1539V17.5096C15.6459 17.5712 15.5312 17.6184 15.4023 17.6715L15.4022 17.6715L15.4018 17.6716C15.3471 17.6941 15.2899 17.7177 15.2301 17.7438C14.3695 18.066 13.2793 18.2417 12.103 18.2417C10.9268 18.2417 9.8366 18.066 8.97593 17.7438C8.91601 17.7176 8.85865 17.694 8.80384 17.6715L8.80379 17.6715ZM8.45952 19.5597C8.56016 19.6213 8.67492 19.6686 8.80379 19.7216L8.80384 19.7216C8.85865 19.7442 8.91601 19.7678 8.97593 19.794C9.8366 20.1161 10.9268 20.2919 12.103 20.2919C13.2793 20.2919 14.3695 20.1161 15.2301 19.794C15.2901 19.7678 15.3474 19.7442 15.4022 19.7216L15.4023 19.7216C15.5312 19.6686 15.6459 19.6213 15.7466 19.5597V20.204C15.7466 20.2919 15.5744 20.5554 14.8572 20.819C14.14 21.0826 13.1358 21.2583 12.103 21.2583C11.0415 21.2583 10.0661 21.1119 9.34888 20.819C8.63166 20.5554 8.45952 20.2626 8.45952 20.204V19.5597ZM8.80379 21.7717C8.67492 21.7187 8.56016 21.6715 8.45952 21.6098V22.2541C8.45952 22.3127 8.63166 22.6056 9.34888 22.8692C10.0661 23.162 11.0415 23.3085 12.103 23.3085C13.1358 23.3085 14.14 23.1327 14.8572 22.8692C15.5744 22.6056 15.7466 22.342 15.7466 22.2541V21.6098C15.6459 21.6715 15.5312 21.7187 15.4023 21.7717C15.3475 21.7943 15.2901 21.8179 15.2301 21.8441C14.3695 22.1663 13.2793 22.342 12.103 22.342C10.9268 22.342 9.8366 22.1663 8.97593 21.8441C8.91599 21.8179 8.85862 21.7943 8.80379 21.7717Z" fill="url(#paint0_linear)"/>
<defs>
<linearGradient id="paint0_linear" x1="15.0002" y1="6" x2="15.0002" y2="24.392" gradientUnits="userSpaceOnUse">
<stop stop-color="#FFB7B6"/>
<stop offset="1" stop-color="#F04E48"/>
</linearGradient>
</defs>
</svg>
