<svg width="26" height="26" viewBox="0 0 26 26" fill="none" xmlns="http://www.w3.org/2000/svg">
<path fill-rule="evenodd" clip-rule="evenodd" d="M3.25 0.8125C3.25 0.363391 3.61502 0 4.0625 0H21.9375C22.3882 0 22.75 0.363391 22.75 0.8125C22.75 1.26161 22.3882 1.625 21.9375 1.625H4.0625C3.61502 1.625 3.25 1.26161 3.25 0.8125ZM3.25 2.4375H22.75L26 8.9375H0L3.25 2.4375ZM2.4375 13.6982C1.03787 13.3349 0 12.0748 0 10.5625V9.75H26V10.5625C26 12.0748 24.9621 13.3349 23.5625 13.6982V24.375H25.1875C25.6382 24.375 26 24.7384 26 25.1875C26 25.6366 25.6382 26 25.1875 26H0.8125C0.365016 26 0 25.6366 0 25.1875C0 24.7384 0.364965 24.375 0.8125 24.375H2.4375V13.6982ZM19.5 10.5625C19.5 12.3573 18.0464 13.8125 16.25 13.8125C14.4568 13.8125 13 12.3573 13 10.5625C13 12.3573 11.5464 13.8125 9.75 13.8125V24.375H21.9375V13.6982C20.5379 13.3349 19.5 12.0748 19.5 10.5625ZM8.9375 13.6982V24.375H4.0625V13.6982C5.46218 13.3349 6.5 12.0748 6.5 10.5625C6.5 12.0748 7.53787 13.3349 8.9375 13.6982ZM6.86417 4.2433L5.23917 7.4933C5.16615 7.63615 5.02335 7.71867 4.87416 7.71867C4.81383 7.71867 4.75198 7.70597 4.69322 7.67581C4.49325 7.57582 4.41073 7.33146 4.51229 7.13148L6.13729 3.88148C6.23885 3.68151 6.48164 3.60061 6.68162 3.69898C6.88322 3.79896 6.96254 4.04332 6.86417 4.2433ZM8.48917 7.4933L10.1142 4.2433C10.2125 4.04332 10.1332 3.79896 9.93161 3.69898C9.73326 3.60061 9.48885 3.68151 9.38729 3.88148L7.76229 7.13148C7.66073 7.33146 7.74325 7.57582 7.94322 7.67581C8.00198 7.70597 8.06383 7.71867 8.12416 7.71867C8.27335 7.71867 8.41615 7.63615 8.48917 7.4933ZM13.4062 7.3125C13.4062 7.53787 13.2254 7.71875 13 7.71875C12.7763 7.71875 12.5938 7.53782 12.5938 7.3125V4.0625C12.5938 3.83713 12.7763 3.65625 13 3.65625C13.2254 3.65625 13.4062 3.83718 13.4062 4.0625V7.3125ZM17.8741 7.71858C17.9408 7.71858 18.0074 7.70273 18.0709 7.6678C18.2677 7.56146 18.3375 7.3139 18.2328 7.11713L16.4555 3.86712C16.3475 3.66877 16.0968 3.59895 15.9032 3.70686C15.7064 3.81319 15.6334 4.06075 15.7413 4.25753L17.5187 7.50753C17.5917 7.64241 17.7313 7.71858 17.8741 7.71858ZM21.305 7.67589C21.2479 7.70606 21.1876 7.71875 21.1241 7.71875C20.9749 7.71875 20.8321 7.63623 20.7623 7.49339L19.1373 4.24339C19.0357 4.04341 19.1182 3.79905 19.3182 3.69906C19.515 3.59907 19.7625 3.68002 19.8641 3.88157L21.4891 7.13157C21.5875 7.33155 21.5081 7.57596 21.305 7.67589ZM6.90625 17.7512V19.6238C6.66824 19.7666 6.5 20.0141 6.5 20.3125C6.5 20.7616 6.86496 21.125 7.3125 21.125C7.76318 21.125 8.125 20.7616 8.125 20.3125C8.125 20.0142 7.95839 19.7666 7.71875 19.6238V17.7512C7.95839 17.6084 8.125 17.3608 8.125 17.0625C8.125 16.6134 7.76318 16.25 7.3125 16.25C6.86502 16.25 6.5 16.6134 6.5 17.0625C6.5 17.3608 6.66819 17.6084 6.90625 17.7512ZM13.6674 17.5875L14.2418 18.162L16.5397 15.8642L15.9653 15.2897L13.6674 17.5875ZM14.2418 20.4599L13.6674 19.8854L18.2631 15.2897L18.8376 15.8642L14.2418 20.4599ZM18.8357 18.1625L18.2613 17.588L15.9634 19.8858L16.5379 20.4603L18.8357 18.1625Z" fill="url(#paint0_linear)"/>
<defs>
<linearGradient id="paint0_linear" x1="13" y1="0" x2="13" y2="26" gradientUnits="userSpaceOnUse">
<stop stop-color="#FFB7B6"/>
<stop offset="1" stop-color="#F04E48"/>
</linearGradient>
</defs>
</svg>
