<svg width="30" height="30" viewBox="0 0 30 30" fill="none" xmlns="http://www.w3.org/2000/svg">
<path fill-rule="evenodd" clip-rule="evenodd" d="M3.625 15.8691C3.625 9.59664 8.7275 4.49414 15 4.49414C21.2725 4.49414 26.375 9.59664 26.375 15.8691C26.375 18.9664 25.1278 21.7752 23.1128 23.8292L25.2034 25.9198C25.6795 26.3951 25.6795 27.167 25.2034 27.6431C24.9661 27.8811 24.6541 27.9998 24.3421 27.9998C24.0301 27.9998 23.7181 27.8803 23.4809 27.6431L21.2205 25.3827C19.4314 26.556 17.2961 27.245 15.0008 27.245C12.7047 27.245 10.5686 26.556 8.77869 25.3811L6.51669 27.6431C6.27863 27.8811 5.96662 27.9998 5.65462 27.9998C5.34263 27.9998 5.03062 27.8803 4.79175 27.6423C4.31562 27.167 4.31562 26.3943 4.79175 25.919L6.88475 23.826C4.87137 21.7728 3.625 18.9656 3.625 15.8691ZM18.64 19.8827C18.9488 19.8827 19.2656 19.769 19.5013 19.5252C19.9725 19.054 19.9725 18.2821 19.5013 17.8027L16.2188 14.5202V11.3515C16.2188 10.6771 15.6744 10.1327 15 10.1327C14.3256 10.1327 13.7812 10.6771 13.7812 11.3515V15.024C13.7812 15.349 13.9113 15.6577 14.1388 15.8852L17.7788 19.5252C18.0144 19.769 18.3231 19.8827 18.64 19.8827Z" fill="url(#paint0_linear)"/>
<path fill-rule="evenodd" clip-rule="evenodd" d="M22.6544 2.0083C21.07 2.0083 19.6238 2.6908 18.6406 3.82018C22.2319 4.9008 25.1487 7.54143 26.595 10.9539C27.4806 9.98705 28.0006 8.71143 28.0006 7.35455C28.0006 4.4133 25.6038 2.0083 22.6544 2.0083Z" fill="url(#paint1_linear)"/>
<path fill-rule="evenodd" clip-rule="evenodd" d="M11.4575 3.7875C10.45 2.67437 9.00375 2 7.4275 2C4.4375 2 2 4.4375 2 7.4275C2 8.77625 2.51187 10.0519 3.37313 11.0269C4.8275 7.54937 7.79313 4.86 11.4575 3.7875Z" fill="url(#paint2_linear)"/>
<defs>
<linearGradient id="paint0_linear" x1="15" y1="4.49414" x2="15" y2="27.9998" gradientUnits="userSpaceOnUse">
<stop stop-color="#FFB7B6"/>
<stop offset="1" stop-color="#F04E48"/>
</linearGradient>
<linearGradient id="paint1_linear" x1="23.3206" y1="2.0083" x2="23.3206" y2="10.9539" gradientUnits="userSpaceOnUse">
<stop stop-color="#FFB7B6"/>
<stop offset="1" stop-color="#F04E48"/>
</linearGradient>
<linearGradient id="paint2_linear" x1="6.72875" y1="2" x2="6.72875" y2="11.0269" gradientUnits="userSpaceOnUse">
<stop stop-color="#FFB7B6"/>
<stop offset="1" stop-color="#F04E48"/>
</linearGradient>
</defs>
</svg>
